<?xml version="1.0" encoding="utf-8"?>
<svg viewBox="65.43 392.581 711.807 483.07" xmlns="http://www.w3.org/2000/svg">
  <path fill="#ffffff" d=" M 643.94 435.27 L 479.61 780.09 A 0.47 0.47 0.0 0 1 479.19 780.35 L 460.39 780.61 A 0.47 0.47 0.0 0 1 459.96 780.34 L 412.01 679.64 A 0.47 0.47 0.0 0 1 412.02 679.22 L 422.97 658.52 A 0.47 0.47 0.0 0 1 423.81 658.54 L 469.24 754.03 A 0.47 0.47 0.0 0 0 470.08 754.03 L 631.42 415.62 A 0.47 0.47 0.0 0 1 631.85 415.35 L 766.12 415.35 A 0.47 0.47 0.0 0 1 766.54 416.03 L 551.90 853.46 A 0.47 0.47 0.0 0 1 551.48 853.72 L 530.58 853.75 A 0.47 0.47 0.0 0 1 530.15 853.07 L 734.96 435.68 A 0.47 0.47 0.0 0 0 734.54 435.00 L 644.37 435.00 A 0.47 0.47 0.0 0 0 643.94 435.27 Z" transform="matrix(1, 0, 0, 1, -1.4210854715202004e-14, 0)"/>
  <path fill="#ffffff" d=" M 112.56 436.24 L 289.11 808.14 A 0.37 0.37 0.0 0 0 289.78 808.14 L 427.26 516.60 A 0.37 0.37 0.0 0 1 427.59 516.39 L 445.79 516.39 A 0.37 0.37 0.0 0 1 446.12 516.60 L 495.31 617.95 A 0.37 0.37 0.0 0 1 495.31 618.27 L 484.85 639.70 A 0.37 0.37 0.0 0 1 484.18 639.70 L 437.89 542.78 A 0.37 0.37 0.0 0 0 437.22 542.78 L 289.82 854.17 A 0.37 0.37 0.0 0 1 289.16 854.17 L 81.38 416.53 A 0.37 0.37 0.0 0 1 81.72 416.00 L 215.37 416.00 A 0.37 0.37 0.0 0 1 215.70 416.21 L 296.96 587.04 A 0.37 0.37 0.0 0 0 297.63 587.04 L 372.26 428.41 A 0.37 0.37 0.0 0 1 372.59 428.20 L 394.09 428.19 A 0.37 0.37 0.0 0 1 394.42 428.72 L 297.68 633.07 A 0.37 0.37 0.0 0 1 297.02 633.07 L 203.26 435.91 A 0.37 0.37 0.0 0 0 202.93 435.70 L 112.90 435.71 A 0.37 0.37 0.0 0 0 112.56 436.24 Z" transform="matrix(1, 0, 0, 1, -1.4210854715202004e-14, 0)"/>
</svg>